<svg viewBox="0 0 896 504" height="504" width="896" xmlns="http://www.w3.org/2000/svg" version="1.1"><rect x="0" y="0" width="896" height="504" fill="#ff0071ff"></rect><g transform-origin="448 252" transform="scale(-1, 1)"><linearGradient id="linear-gradient-r3"><stop offset="0%" stop-color="#95b4ffff" stop-opacity="100%"></stop><stop offset="100%" stop-color="#95ffecff" stop-opacity="100%"></stop></linearGradient><filter id="shadow-r3" x="-20%" width="150%" y="-20%" height="150%"><feDropShadow dx="-4" dy="0" stdDeviation="10" flood-color="#00000061"></feDropShadow></filter><path d="M0 0 0,391.34558612164113 C 28.417748039681463,382.09421693699437 90.8112020472375,372.08031927156577 142.08874019840732,345.0887401984073 C 193.36627834957716,318.09716112524893 222.2093787193298,303.4093787193298 256.38769075584906,256.38769075584906 C 290.5660027923683,209.3660027923683 288.95068803035036,161.25783853217337 312.9803003810036,109.98030038100356 C 337.00991273165687,58.702762229833745 363.82466208349297,21.996060076200717 376.5357525091153,0 L0 0Z" fill="none" stroke-linecap="round" stroke-width="1" style="transition: all 0.4s cubic-bezier(0.16, 1, 0.3, 1) 0s; fill: url(&quot;#linear-gradient-r3&quot;);" filter="url(#shadow-r3)"></path></g><g transform-origin="448 252" transform="scale(1, -1)"><linearGradient id="linear-gradient-r3"><stop offset="0%" stop-color="#95b4ffff" stop-opacity="100%"></stop><stop offset="100%" stop-color="#95ffecff" stop-opacity="100%"></stop></linearGradient><filter id="shadow-r3" x="-20%" width="150%" y="-20%" height="150%"><feDropShadow dx="-4" dy="0" stdDeviation="10" flood-color="#00000061"></feDropShadow></filter><path d="M0 0 0,423.85324411904446 C 29.677538151169816,409.36013344640537 104.79163067964839,392.56227950345726 148.3876907558491,351.38769075584906 C 191.9837508320498,310.21310200824087 194.41258769580165,275.6125876958016 217.98030038100356,217.98030038100356 C 241.5480130662055,160.3480130662055 223.04918611763043,106.82231425805949 266.22625418185874,63.226254181858764 C 309.4033222460871,19.63019410565805 400.33776339808793,12.645250836371758 433.86564070214524,0 L0 0Z" fill="none" stroke-linecap="round" filter="url(#shadow-r3)" stroke-width="1" style="transition: all 0.4s cubic-bezier(0.16, 1, 0.3, 1) 0s; fill: url(&quot;#linear-gradient-r3&quot;);"></path></g></svg>